<svg width="27" height="23" viewBox="0 0 27 23" fill="none" xmlns="http://www.w3.org/2000/svg">
<path d="M0.000219325 22.6117L0.667726 17.8557C2.00274 17.967 3.08744 17.7445 3.92182 17.1882C4.75621 16.6598 5.34028 15.881 5.67403 14.8519C5.97997 13.8507 6.0356 12.6825 5.84091 11.3475L0.000218341 11.3475L0.000217349 -9.11478e-05L11.3478 -9.21398e-05L11.3478 11.3475C11.3478 15.3526 10.4161 18.3842 8.55266 20.4423C6.6892 22.5283 3.83839 23.2514 0.000219325 22.6117ZM15.1026 22.6117L15.7701 17.8557C17.1051 17.967 18.1898 17.7445 19.0242 17.1882C19.8586 16.6598 20.4426 15.881 20.7764 14.8519C21.0823 13.8507 21.1379 12.6825 20.9433 11.3475L15.1026 11.3475L15.1026 -9.2468e-05L26.4502 -9.34601e-05L26.4502 11.3475C26.4502 15.3526 25.5185 18.3842 23.655 20.4423C21.7916 22.5283 18.9407 23.2514 15.1026 22.6117Z" fill="#F5CCA2"/>
</svg>
