<svg width="42" height="55" viewBox="0 0 42 55" fill="none" xmlns="http://www.w3.org/2000/svg">
<path d="M20.1836 40.4692C20.5126 40.7982 21.046 40.7982 21.375 40.4692L26.736 35.1082C27.065 34.7792 27.065 34.2459 26.736 33.9169C26.407 33.5879 25.8736 33.5879 25.5447 33.9169L20.7793 38.6822L16.0139 33.9169C15.685 33.5879 15.1516 33.5879 14.8226 33.9169C14.4936 34.2459 14.4936 34.7792 14.8226 35.1082L20.1836 40.4692ZM20.7793 14.6014L19.9369 14.6014L19.9369 39.8736L20.7793 39.8736L21.6217 39.8736L21.6217 14.6014L20.7793 14.6014Z" fill="#F5CCA2"/>
<rect x="0.842404" y="0.842404" width="39.8738" height="52.7907" rx="19.9369" stroke="#F5CCA2" stroke-width="1.68481"/>
</svg>
